<?xml version="1.0" standalone="no"?>
<!DOCTYPE svg PUBLIC "-//W3C//DTD SVG 20010904//EN"
 "http://www.w3.org/TR/2001/REC-SVG-20010904/DTD/svg10.dtd">
<svg version="1.0" xmlns="http://www.w3.org/2000/svg"
 width="100.000000pt" height="100.000000pt" viewBox="0 0 100.000000 100.000000"
 preserveAspectRatio="xMidYMid meet">
<metadata>
Created by potrace 1.10, written by Peter Selinger 2001-2011
</metadata>
<g transform="translate(0.000000,100.000000) scale(0.100000,-0.100000)"
fill="#000000" stroke="none">
<path d="M418 967 c-9 -12 -47 -34 -85 -49 -62 -25 -72 -33 -101 -81 -18 -31
-32 -67 -32 -85 0 -18 -7 -49 -15 -69 -19 -45 -19 -73 0 -73 7 0 18 -6 22 -14
11 -20 90 -59 103 -51 14 9 11 -5 -9 -39 -11 -20 -25 -30 -44 -30 -15 -1 -31
-6 -37 -12 -16 -16 -18 -146 -3 -151 9 -3 11 -17 8 -41 -3 -20 1 -86 8 -147
11 -93 15 -110 31 -113 17 -4 18 2 14 62 -3 54 -1 66 10 61 7 -3 30 -5 50 -5
28 0 33 -3 24 -12 -13 -13 -17 -49 -4 -47 20 3 32 -2 32 -16 0 -20 24 -19 41
1 7 9 24 20 37 25 16 6 22 14 18 25 -5 13 -1 15 18 12 15 -3 27 0 30 8 8 21
75 35 100 21 21 -12 20 -12 -5 -15 -20 -2 -29 -11 -36 -35 l-10 -32 -12 29
c-9 23 -14 26 -26 16 -8 -6 -19 -9 -25 -5 -5 3 -10 -1 -10 -10 0 -13 6 -16 25
-11 18 5 25 2 25 -8 0 -7 7 -19 15 -26 13 -10 17 -7 30 24 10 24 22 36 35 36
28 0 34 18 14 41 -17 19 -16 19 34 19 50 0 82 17 82 43 0 7 -11 42 -24 79 -24
67 -25 68 -5 78 24 13 25 54 1 78 -16 15 -16 19 -3 43 14 25 13 29 -12 63 -16
20 -35 36 -43 36 -7 0 -14 8 -14 17 0 13 3 14 12 5 18 -18 31 -14 25 8 -4 15
0 20 13 20 14 0 17 5 12 22 -3 14 -2 19 6 14 7 -4 12 -1 12 7 0 17 -34 49 -43
41 -4 -4 1 -13 11 -20 11 -9 13 -13 4 -14 -9 0 -11 -7 -7 -22 6 -19 5 -21 -6
-10 -20 19 -31 14 -23 -10 6 -20 5 -21 -9 -10 -17 14 -33 0 -21 -19 4 -8 0 -9
-15 -4 -13 4 -21 2 -21 -5 0 -8 -6 -8 -20 0 -11 6 -26 8 -32 4 -7 -5 -9 -2 -6
8 4 8 -2 20 -14 27 -19 12 -18 13 6 42 27 32 54 105 43 116 -9 9 -75 -12 -116
-37 -53 -33 -26 -37 34 -5 29 16 57 26 62 22 12 -12 -38 -98 -64 -110 -24 -11
-33 -32 -11 -25 11 4 48 -31 48 -45 0 -3 -17 -8 -37 -12 -20 -4 -72 -23 -114
-44 -70 -33 -75 -35 -62 -14 15 22 14 23 -12 23 -29 0 -91 26 -101 42 -4 7 21
9 70 6 42 -2 76 -1 76 2 0 3 -8 14 -16 25 -11 14 -18 16 -21 8 -3 -9 -29 -13
-79 -13 l-74 0 20 40 c11 21 20 55 20 74 0 34 0 35 55 41 30 4 55 11 55 16 0
4 -23 5 -52 2 -37 -5 -49 -3 -44 5 4 7 20 12 36 12 16 0 32 5 36 12 5 8 -2 9
-26 5 -32 -7 -32 -7 -18 16 8 12 42 33 76 47 33 14 68 32 77 40 16 13 19 12
33 -8 8 -12 21 -22 29 -22 9 0 42 -14 74 -31 32 -17 65 -29 74 -26 9 4 15 1
15 -9 0 -11 6 -13 22 -9 17 6 20 4 15 -9 -5 -12 -1 -16 15 -16 16 0 18 -3 9
-14 -9 -11 -8 -15 5 -20 13 -5 14 -9 5 -20 -10 -11 -8 -16 9 -21 26 -8 40 3
20 15 -10 7 -11 10 -2 10 6 0 12 5 12 10 0 6 -7 10 -16 10 -11 0 -14 6 -9 20
5 15 2 20 -13 20 -16 0 -19 5 -15 21 5 18 3 20 -16 14 -15 -5 -21 -2 -21 9 0
18 -17 21 -39 7 -10 -7 -24 -3 -45 12 -17 12 -48 29 -70 37 -23 9 -46 26 -52
38 -16 32 -17 32 -36 9z m215 -402 c-18 -24 -33 -32 -33 -17 0 14 34 51 42 46
5 -3 0 -16 -9 -29z m-33 22 c0 -1 -4 -17 -9 -35 -6 -18 -6 -30 -1 -27 19 12
101 -137 145 -262 l22 -63 -33 -6 c-19 -3 -41 -4 -49 0 -8 3 -15 1 -15 -4 0
-6 -10 -10 -22 -10 -13 0 -58 -11 -101 -25 -43 -14 -87 -25 -97 -25 -20 0 -20
-1 -24 107 0 17 12 29 47 47 31 17 47 21 48 13 0 -7 3 -6 6 3 4 8 25 31 47 51
34 30 38 39 28 51 -6 8 -8 19 -4 23 4 5 1 5 -5 1 -15 -8 -18 10 -3 19 6 3 14
-4 19 -17 8 -20 9 -19 8 12 0 19 -2 29 -5 22 -3 -10 -8 -8 -18 5 -11 14 -13
14 -9 2 8 -22 -20 -46 -29 -24 -6 17 -26 21 -26 4 0 -5 5 -7 10 -4 6 3 10 -1
10 -9 0 -9 6 -16 14 -16 20 0 31 -39 16 -54 -9 -8 -11 -7 -10 4 4 29 0 39 -15
34 -10 -4 -15 0 -15 12 0 13 -3 15 -11 7 -13 -13 -4 -33 15 -33 8 0 16 -9 19
-21 3 -12 3 -18 0 -15 -4 3 -20 -5 -37 -17 -34 -26 -66 -41 -79 -38 -5 1 -6
-2 -3 -7 8 -14 -67 -11 -81 3 -18 18 -73 147 -67 157 3 5 17 8 32 8 15 0 47 9
71 20 24 11 46 18 48 16 3 -3 5 -22 6 -43 0 -21 2 -30 4 -20 3 9 9 17 14 17 6
0 7 -5 4 -10 -3 -6 -3 -19 0 -30 6 -17 8 -18 21 -6 8 8 14 19 14 25 0 5 5 22
12 36 11 24 12 25 32 8 16 -14 18 -15 8 -2 -7 9 -10 25 -6 35 4 13 3 15 -3 6
-7 -10 -16 -10 -37 -2 -34 13 -46 13 -46 0 0 -5 7 -7 15 -4 8 4 15 1 15 -6 0
-7 7 -10 14 -7 10 4 13 1 9 -8 -4 -11 -10 -12 -25 -4 -11 6 -22 8 -26 5 -3 -3
0 -6 6 -6 7 0 12 -7 12 -16 0 -27 -28 2 -35 37 -6 27 -9 29 -23 16 -10 -8 -28
-18 -41 -22 -18 -6 -22 -4 -16 6 4 8 -2 4 -14 -8 -12 -13 -27 -23 -33 -23 -6
0 -1 11 12 25 15 16 30 23 42 19 10 -3 18 -2 18 3 0 13 59 42 115 57 46 13 95
19 95 13z m114 -36 c10 -11 16 -30 14 -43 -2 -18 -11 -24 -39 -29 -32 -5 -39
-2 -52 21 -15 24 -15 29 -1 48 19 27 55 28 78 3z m-444 -105 c0 -8 -10 -13
-25 -13 -20 0 -23 2 -14 13 6 8 18 14 25 14 8 0 14 -6 14 -14z m440 4 c18 0
38 -31 33 -50 -7 -27 -32 -25 -43 4 -5 13 -14 27 -19 31 -17 10 -13 28 5 21 9
-3 19 -6 24 -6z m-428 -45 c14 -19 8 -24 -23 -20 -36 4 -43 10 -35 24 8 13 48
10 58 -4z m-25 -181 c0 -80 4 -158 7 -172 5 -21 4 -23 -4 -10 -5 9 -12 72 -15
140 -3 68 -9 138 -14 156 -8 27 -7 32 7 32 15 0 17 -17 19 -146z m31 23 c-12
-48 -13 -50 -19 -22 -3 17 -2 41 3 54 5 15 4 28 -3 37 -6 7 -7 18 -3 25 4 8
12 3 21 -15 12 -23 12 -35 1 -79z m32 69 c1 -21 38 -56 59 -56 19 0 21 -6 21
-55 l0 -55 -60 0 c-69 0 -69 0 -40 83 19 54 19 59 4 90 -16 30 -16 31 -1 18
10 -7 17 -19 17 -25z m118 -202 c11 4 23 2 27 -4 3 -5 -1 -10 -9 -10 -8 0 -20
-9 -26 -20 -13 -24 -30 -26 -30 -5 0 8 -7 15 -15 15 -18 0 -19 4 -2 30 11 18
13 19 24 4 7 -10 19 -13 31 -10z"/>
<path d="M398 440 c-7 -16 -17 -30 -21 -30 -5 0 -5 -5 -2 -10 4 -6 12 -4 21 5
9 8 13 19 9 24 -3 6 2 14 11 19 10 6 13 12 6 16 -6 3 -16 -7 -24 -24z"/>
<path d="M354 397 c3 -10 1 -27 -4 -37 -7 -13 -7 -21 2 -26 7 -4 8 -3 4 4 -4
7 -2 12 4 12 6 0 8 5 5 10 -3 6 -1 10 6 10 7 0 9 -8 6 -21 -3 -12 -3 -18 1
-15 3 4 12 -4 20 -16 11 -18 12 -19 7 -3 -16 48 -15 56 5 50 12 -4 20 -2 20 5
0 8 -10 10 -25 7 -18 -3 -30 2 -42 17 -12 17 -14 17 -9 3z"/>
<path d="M571 333 c4 -21 -2 -33 -13 -27 -7 4 -8 3 -4 -5 4 -6 11 -9 16 -6 5
3 11 1 15 -5 4 -6 10 -8 15 -5 4 3 6 -3 4 -12 -2 -10 4 -27 13 -38 10 -11 17
-18 16 -16 -2 2 3 11 10 19 10 13 9 14 -2 8 -8 -5 -17 -3 -22 5 -14 23 -10 32
9 18 14 -11 15 -11 5 1 -19 21 -16 34 5 19 14 -11 13 -10 -2 9 -12 13 -14 22
-7 22 7 0 10 4 7 8 -6 10 -66 15 -65 5z"/>
<path d="M573 273 c4 -3 1 -16 -6 -27 -11 -18 -11 -25 0 -46 14 -24 14 -24 7
10 -6 32 -5 34 11 20 17 -14 17 -13 8 5 -6 11 -8 26 -6 33 3 6 -1 12 -8 12 -7
0 -9 -3 -6 -7z"/>
<path d="M550 849 c0 -5 -4 -7 -10 -4 -5 3 -10 1 -10 -5 0 -7 -7 -10 -15 -6
-10 4 -15 -1 -15 -14 0 -11 2 -20 5 -20 12 0 73 48 68 54 -10 10 -23 7 -23 -5z"/>
<path d="M293 738 c-38 -12 -45 -31 -9 -22 13 3 39 6 57 7 19 1 33 7 32 12 -3
14 -42 15 -80 3z"/>
<path d="M730 584 c0 -3 6 -12 14 -20 8 -7 16 -19 19 -26 2 -7 7 -10 11 -7 9
8 -17 59 -31 59 -7 0 -13 -3 -13 -6z"/>
<path d="M764 449 c8 -12 12 -28 9 -35 -3 -8 0 -14 6 -14 12 0 14 14 5 48 -4
12 -13 22 -21 22 -12 0 -12 -3 1 -21z"/>
</g>
</svg>
