<?xml version="1.0" encoding="UTF-8" standalone="no"?>
<svg
   xmlns:dc="http://purl.org/dc/elements/1.1/"
   xmlns:cc="http://creativecommons.org/ns#"
   xmlns:rdf="http://www.w3.org/1999/02/22-rdf-syntax-ns#"
   xmlns:svg="http://www.w3.org/2000/svg"
   xmlns="http://www.w3.org/2000/svg"
   viewBox="0 0 486.66666 486.58667"
   height="486.58667"
   width="486.66666"
   xml:space="preserve"
   id="svg2"
   version="1.1"><metadata
     id="metadata8"><rdf:RDF><cc:Work
         rdf:about=""><dc:format>image/svg+xml</dc:format><dc:type
           rdf:resource="http://purl.org/dc/dcmitype/StillImage" /></cc:Work></rdf:RDF></metadata><defs
     id="defs6" /><g
     transform="matrix(1.3333333,0,0,-1.3333333,0,486.58667)"
     id="g10"><g
       transform="scale(0.1)"
       id="g12"><path
         id="path14"
         style="fill:#100f0d;fill-opacity:1;fill-rule:nonzero;stroke:none"
         d="m 2672.87,1322.31 h -180.33 l -265.09,745.74 h 174.92 l 184.74,-572.74 h 2.79 l 177.85,572.74 h 165.94 z m -524.58,623.55 h -145.23 v -397.98 c 0,-17.32 1.02,-32.6 2.5,-44.94 1.32,-12.63 4.56,-23.2 9.98,-31.73 5,-8.81 12.63,-14.97 22.47,-19.37 11.02,-5 25.11,-6.76 43.04,-6.76 10.86,0 22.16,0.28 33.62,0.89 11.31,0.28 22.32,1.76 33.62,4.69 v -126.88 c -17.62,-2.06 -34.95,-3.53 -52.26,-5.88 -16.46,-1.47 -33.93,-2.35 -51.71,-2.35 -42.29,0 -76.36,4.11 -102.5,11.45 -25.7,8.82 -45.83,20.86 -60.64,36.43 -14.4,16.45 -24.25,35.83 -29.53,59.92 -4.85,24.38 -7.63,51.1 -9.26,82.23 v 440.28 h -121.3 v 122.19 h 121.3 v 223.22 h 160.67 v -223.22 h 145.23 z m -677.73,-523.47 c -44.35,-64.7 -90.02,-129.09 -162.43,-130.41 -71.07,-1.32 -93.99,42.22 -175.2,42.22 -81.22,0 -106.62,-40.9 -173.883,-43.54 -69.746,-2.64 -122.926,69.83 -167.563,134.22 -90.902,131.82 -160.812,372.36 -67.105,534.64 46.535,80.62 129.371,131.74 219.398,133.12 68.733,1.19 133.203,-46.11 175.353,-46.11 41.26,0 115.57,55.22 202.65,48.83 34.36,-2.65 131.59,-12.84 194.29,-105.5 -4.98,-3.1 -115.56,-67.65 -114.39,-201.94 1.32,-160.59 140.68,-214.06 142.31,-214.64 -1.33,-3.88 -22.33,-76.22 -73.43,-150.89 z m -300.92,875.35 c 39.94,46.9 107.72,81.86 163.53,84.07 7.06,-64.91 -18.96,-130.49 -57.72,-177.18 -38.92,-47.08 -102.43,-83.57 -164.7,-78.73 -8.74,63.75 22.85,130.34 58.89,171.84 z m 2479.03,350.39 c 0,36.42 0,72.55 -0.15,109.27 -2.64,78.99 -7.64,158.6 -22.18,237.02 -13.36,79.6 -37.01,154.21 -73.57,225.87 -36.42,71.07 -83.41,136 -139.96,192.38 -55.95,55.81 -121.16,103.39 -191.94,139.51 -72.7,36.73 -146.57,60.52 -226.17,74.33 -77.68,14.39 -157.56,19.08 -237.01,21.14 -36.28,0.59 -73.29,0.87 -109.41,1.76 h -1647.3 c -36.425,-0.89 -72.25,-1.17 -109.128,-1.76 -78.856,-2.06 -158.59,-6.75 -237.754,-21.14 -79.16,-13.81 -153.028,-37.6 -225.278,-74.33 -71.218,-36.12 -135.843,-83.7 -191.937,-139.51 C 180.184,3356.29 133.195,3291.36 97.3594,3220.29 60.0664,3148.63 36.8633,3074.02 22.9102,2994.42 8.66016,2916 3.66406,2836.39 1.91406,2757.4 0.738281,2720.68 0.589844,2684.55 0,2648.13 V 1001.27 C 0.589844,964.559 0.738281,928.43 1.91406,891.719 3.66406,812.422 8.66016,732.832 22.9102,654.41 36.8633,574.801 60.0664,500.48 97.3594,428.242 133.195,357.75 180.184,292.539 236.883,237.031 292.977,180.34 357.602,133.059 428.82,97.2188 501.07,60.2109 574.938,36.7188 654.098,22.6211 733.262,8.51953 812.996,3.82031 891.852,1.48047 928.73,0.589844 964.555,0.300781 1000.98,0.300781 1044.3,0 1087.19,0 1130.65,0 h 1389.27 c 42.43,0 85.76,0 128.36,0.300781 36.12,0 73.13,0.289063 109.41,1.179689 79.45,2.33984 159.33,7.03906 237.01,21.14063 79.6,14.0977 153.47,37.5898 226.17,74.5977 70.78,35.8402 135.99,83.1212 191.94,139.8122 56.55,55.508 103.54,120.719 139.96,191.211 36.56,72.238 60.21,146.559 73.57,226.168 14.54,78.422 19.54,158.012 22.18,237.309 0.15,36.711 0.15,72.84 0.15,109.551 1.33,42.89 1.33,85.48 1.33,129.53 v 1387.82 c 0,43.45 0,86.62 -1.33,129.51" /></g></g></svg>