<?xml version="1.0" encoding="UTF-8" standalone="no"?>
<svg
   xmlns:dc="http://purl.org/dc/elements/1.1/"
   xmlns:cc="http://creativecommons.org/ns#"
   xmlns:rdf="http://www.w3.org/1999/02/22-rdf-syntax-ns#"
   xmlns:svg="http://www.w3.org/2000/svg"
   xmlns="http://www.w3.org/2000/svg"
   viewBox="0 0 2982.6667 2982.6667"
   height="2982.6667"
   width="2982.6667"
   xml:space="preserve"
   id="svg2"
   version="1.1"><metadata
     id="metadata8"><rdf:RDF><cc:Work
         rdf:about=""><dc:format>image/svg+xml</dc:format><dc:type
           rdf:resource="http://purl.org/dc/dcmitype/StillImage" /></cc:Work></rdf:RDF></metadata><defs
     id="defs6" /><g
     transform="matrix(1.3333333,0,0,-1.3333333,0,2982.6667)"
     id="g10"><g
       transform="scale(0.1)"
       id="g12"> <g
         transform="scale(1.06318)"
         id="g18"><path
           id="path20"
           style="fill:#000000;fill-opacity:1;fill-rule:evenodd;stroke:none"
           d="m 16299.1,7674.07 c 0,-63.3 -2,-200.53 -5.8,-306.54 -9.3,-259.41 -29.8,-594.16 -60.9,-746.72 -46.8,-229.22 -117.4,-445.55 -209.3,-625.58 -108.8,-213.04 -247.8,-403.79 -412.7,-568.48 -164.6,-164.32 -355.2,-302.68 -568,-411.13 -180.9,-92.17 -398.7,-162.81 -629.2,-209.27 -151,-30.57 -483.2,-50.7 -741,-59.82 -106.1,-3.77 -243.4,-5.74 -306.4,-5.74 l -5691.53,0.84 c -63.33,0 -200.55,1.98 -306.57,5.84 -259.4,9.31 -594.19,29.81 -746.73,60.94 -229.18,46.75 -445.53,117.29 -625.62,209.28 -213.01,108.83 -403.76,247.75 -568.48,412.64 -164.33,164.69 -302.65,355.25 -411.05,568.01 -92.3,180.96 -162.87,398.71 -209.38,629.15 -30.48,151.06 -50.66,483.27 -59.85,741.08 -3.78,106.09 -5.66,243.33 -5.66,306.44 l 0.89,5691.49 c 0,63.3 1.93,200.6 5.77,306.6 9.29,259.4 29.86,594.2 60.93,746.7 46.76,229.2 117.31,445.6 209.29,625.6 108.85,213.1 247.72,403.8 412.69,568.5 164.6,164.4 355.28,302.7 567.94,411.1 181.03,92.2 398.73,162.8 629.25,209.3 150.98,30.5 483.25,50.7 741,59.9 106.11,3.7 243.41,5.6 306.42,5.6 l 5691.59,-0.9 c 63.2,0 200.5,-1.9 306.5,-5.7 259.5,-9.3 594.2,-29.9 746.8,-61 229.1,-46.7 445.4,-117.3 625.6,-209.3 213,-108.8 403.7,-247.7 568.4,-412.7 164.4,-164.6 302.6,-355.2 411.1,-567.8 92.2,-181.1 162.8,-398.8 209.3,-629.3 30.5,-151 50.7,-483.2 60,-741 3.7,-106.1 5.6,-243.4 5.6,-306.5 l -0.9,-5691.53" /></g><path
         id="path22"
         style="fill:#b1060f;fill-opacity:1;fill-rule:evenodd;stroke:none"
         d="m 13396.2,7159.8 c 1.9,876.7 2.3,2517.1 1.5,4034.8 l -3.1,4009.2 H 11820.1 V 7285.9 c 531.7,-19.2 1057.6,-60.7 1576.1,-126.1" /><path
         id="path24"
         style="fill:#b1060f;fill-opacity:1;fill-rule:evenodd;stroke:none"
         d="m 8972.41,15208.9 c 0,-763.1 -1.21,-6087.4 2.16,-8048.2 514.85,64.8 1037.03,105.8 1564.93,125 v 7924.4 H 8972.41 v -1.2" /><path
         id="path26"
         style="fill:#e50914;fill-opacity:1;fill-rule:evenodd;stroke:none"
         d="m 8972.41,15208.9 1590.39,-4506.5 v 2 l 125.7,-355 c 698.4,-1977 1073.6,-3038 1075.6,-3040 l 7.1,-21.4 c 548,-17.8 1079.6,-59.8 1613.9,-126.9 l 5.3,17.2 -1576.6,4476 v -1 l -145.8,412 c -142.7,402.7 -237.8,672.1 -811.6,2293.1 -154.2,436.4 -285.2,805.1 -290.5,822 l -10.6,29.7 h -791.47 l -791.42,-1.2" /></g></g></svg>